<svg xmlns="http://www.w3.org/2000/svg" viewBox="0 0 64 64" id="Pen"><path d="M62.5 7.33 56.67 1.5a5.112 5.112 0 0 0-7.22 0l-5.78 5.78L5.52 45.42c-.12.12-.21.27-.28.43-.01.03-.03.06-.04.09-.01.02-.03.04-.03.06L.07 62.13c-.16.51-.02 1.07.35 1.44.27.28.64.43 1.01.43.14 0 .29-.02.43-.07L18 58.83c.02-.01.04-.02.07-.03.03-.01.06-.03.09-.04.16-.07.3-.16.42-.28l38.15-38.15 5.78-5.78c.96-.97 1.5-2.25 1.5-3.61s-.54-2.65-1.51-3.61zm-17.82 2.98 3.49 3.49-36.12 36.12-3.49-3.49 36.12-36.12zM3.63 60.37l3.56-11.25 7.69 7.69-11.25 3.56zm13.93-4.93-3.49-3.49L50.2 15.83l3.49 3.49-36.13 36.12zm42.92-42.91-4.76 4.76-9-9 4.76-4.76c.87-.87 2.29-.88 3.17 0l5.83 5.83c.42.42.66.99.66 1.58s-.24 1.16-.66 1.59z" fill="#2c2c2c" class="color000000 svgShape"></path></svg>